<svg width="47" height="44" viewBox="0 0 47 44" fill="none" xmlns="http://www.w3.org/2000/svg">
<path d="M9.40118 12.5336C11.1313 12.5336 12.608 11.9218 13.8317 10.6978C15.0558 9.47387 15.6679 7.99674 15.6679 6.26693C15.6679 4.53729 15.0558 3.06016 13.8317 1.83604C12.608 0.6121 11.1312 0 9.40118 0C7.6712 0 6.19441 0.6121 4.97046 1.83604C3.74661 3.06016 3.13451 4.53695 3.13451 6.26693C3.13451 7.99708 3.74661 9.47387 4.97046 10.6978C6.19441 11.9215 7.6712 12.5336 9.40118 12.5336Z" fill="#ECF1E7"/>
<path d="M16.8507 22.3119C18.6866 24.1473 20.9017 25.0654 23.4969 25.0654C26.0922 25.0654 28.3072 24.1473 30.1431 22.3119C31.9787 20.4754 32.8968 18.26 32.8968 15.6654C32.8968 13.0705 31.9787 10.8552 30.1431 9.0192C28.3072 7.18316 26.0922 6.26514 23.4969 6.26514C20.9017 6.26514 18.6864 7.18333 16.8507 9.0192C15.0149 10.855 14.0967 13.0703 14.0967 15.6654C14.0967 18.2605 15.0149 20.4756 16.8507 22.3119Z" fill="#ECF1E7"/>
<path d="M37.6004 12.5336C39.3298 12.5336 40.8069 11.9218 42.0307 10.6978C43.2546 9.47387 43.8663 7.99674 43.8663 6.26693C43.8663 4.53729 43.2546 3.06016 42.0307 1.83604C40.8069 0.6121 39.3298 0 37.6004 0C35.8698 0 34.3931 0.6121 33.1692 1.83604C31.9456 3.06016 31.3336 4.53695 31.3336 6.26693C31.3336 7.99708 31.9457 9.47387 33.1692 10.6978C34.3931 11.9215 35.8698 12.5336 37.6004 12.5336Z" fill="#ECF1E7"/>
<path d="M43.9639 12.5342C43.8665 12.5342 43.5115 12.7056 42.8994 13.0483C42.2879 13.3912 41.4919 13.738 40.513 14.0889C39.5342 14.4395 38.5626 14.615 37.6002 14.615C36.5063 14.615 35.4219 14.4275 34.3444 14.052C34.4254 14.6555 34.4665 15.1942 34.4665 15.6675C34.4665 17.9359 33.8054 20.0247 32.483 21.9341C35.1273 22.016 37.2892 23.0603 38.9708 25.0681H42.2508C43.5888 25.0681 44.7149 24.7369 45.6287 24.0761C46.5424 23.4157 46.9996 22.4482 46.9996 21.1755C46.9998 15.4143 45.9884 12.5338 43.9639 12.5342Z" fill="#ECF1E7"/>
<path d="M40.3046 32.3251C40.1332 31.3703 39.9167 30.4847 39.6555 29.669C39.3944 28.8527 39.0434 28.0576 38.6034 27.2823C38.1626 26.5078 37.6565 25.8464 37.0853 25.2994C36.5137 24.7525 35.8159 24.3165 34.992 23.9896C34.1682 23.6633 33.2579 23.5002 32.2627 23.5002C32.0992 23.5002 31.7486 23.6758 31.2099 24.0267C30.6712 24.3773 30.0761 24.7696 29.423 25.2015C28.7701 25.6334 27.8978 26.0254 26.8037 26.3763C25.7094 26.7273 24.608 26.9028 23.4989 26.9028C22.3893 26.9028 21.2876 26.7273 20.1941 26.3763C19.1004 26.0254 18.2276 25.6334 17.5748 25.2015C16.9218 24.7696 16.3263 24.3773 15.7878 24.0267C15.2491 23.6758 14.8985 23.5002 14.735 23.5002C13.7397 23.5002 12.8299 23.6633 12.0057 23.9896C11.1814 24.3165 10.4839 24.7525 9.91275 25.2994C9.34112 25.8458 8.83568 26.5078 8.39471 27.2823C7.95427 28.0576 7.60342 28.8527 7.34225 29.669C7.08117 30.4847 6.86519 31.3703 6.69354 32.3251C6.52206 33.2799 6.40794 34.1689 6.35084 34.9934C6.29365 35.8176 6.26518 36.6624 6.26518 37.5274C6.26518 39.4853 6.86065 41.0319 8.05192 42.1657C9.24363 43.2995 10.8267 43.867 12.801 43.867H34.1962C36.1706 43.867 37.7536 43.2995 38.9455 42.1657C40.1368 41.0319 40.7324 39.4853 40.7324 37.5274C40.7324 36.6624 40.7037 35.8179 40.6474 34.9934C40.5894 34.1689 40.4753 33.2798 40.3046 32.3251Z" fill="#ECF1E7"/>
<path d="M14.5161 21.9341C13.1941 20.0247 12.5333 17.9359 12.5336 15.6675C12.5336 15.1942 12.5745 14.6558 12.656 14.052C11.5787 14.4272 10.4935 14.615 9.40005 14.615C8.43719 14.615 7.46644 14.4396 6.48711 14.0889C5.50821 13.738 4.71237 13.3912 4.10062 13.0483C3.4886 12.7056 3.13338 12.5342 3.03555 12.5342C1.01182 12.5343 0 15.4147 0 21.1755C0 22.4482 0.456996 23.4157 1.37073 24.0761C2.28472 24.7369 3.41083 25.0675 4.74864 25.0675H8.02906C9.71017 23.0603 11.8722 22.0159 14.5161 21.9341Z" fill="#ECF1E7"/>
</svg>
