<svg width="19" height="19" viewBox="0 0 19 19" fill="none" xmlns="http://www.w3.org/2000/svg">
<path d="M18.8474 7.74146C18.9319 7.74146 19.0004 7.80993 19.0004 7.89439V9.5C19.0004 10.101 18.9445 10.6885 18.8375 11.2585C18.0093 15.686 14.1087 19.032 9.43337 18.9997C4.18726 18.9636 -0.011225 14.7248 0.000390253 9.47859C0.0119313 4.24182 4.26088 0 9.50035 0C12.0673 0 14.3964 1.01836 16.1063 2.67254C16.1681 2.73225 16.1697 2.83067 16.1089 2.89138L13.8374 5.16288C13.779 5.22136 13.6845 5.22289 13.6245 5.16585C12.5513 4.14426 11.0992 3.51708 9.50035 3.51708C6.1987 3.51708 3.53999 6.15689 3.51758 9.45848C3.49505 12.7817 6.18237 15.4829 9.50035 15.4829C12.1925 15.4829 14.4694 13.7045 15.2202 11.2585H9.65328C9.56882 11.2585 9.50035 11.1901 9.50035 11.1056V7.89435C9.50035 7.80989 9.56882 7.74142 9.65328 7.74142H18.8474V7.74146Z" fill="#22271C"/>
</svg>
