<svg width="51" height="53" viewBox="0 0 51 53" fill="none" xmlns="http://www.w3.org/2000/svg">
<path d="M30.617 21.8213C30.7883 20.4558 31.3437 19.167 32.2187 18.1048C33.0937 17.0426 34.2522 16.2505 35.5596 15.8209C36.867 15.3912 38.2695 15.3414 39.6041 15.6775C40.9386 16.0135 42.1503 16.7215 43.0983 17.7191C43.7022 17.4297 44.3629 17.2783 45.0326 17.276C43.9369 15.8293 42.4309 14.7461 40.7108 14.1675C38.9907 13.589 37.1362 13.5419 35.389 14.0325C33.6418 14.523 32.0828 15.5284 30.9151 16.9177C29.7475 18.307 29.0254 20.0157 28.8428 21.8213H30.617Z" fill="#ECF1E7"/>
<path d="M36.2586 21.8221H38.321C38.4623 21.5982 38.6279 21.3907 38.8149 21.2033C38.6082 21.0697 38.3765 20.9796 38.1339 20.9384C37.8913 20.8972 37.6428 20.9059 37.4036 20.9638C37.1645 21.0216 36.9396 21.1276 36.7426 21.2752C36.5457 21.4227 36.3808 21.6088 36.2581 21.8221H36.2586Z" fill="#ECF1E7"/>
<path d="M40.4919 20.2546C40.5935 20.2298 40.6965 20.2095 40.8011 20.1937C40.9954 19.6909 41.2778 19.2267 41.6352 18.8232C40.9227 18.1287 40.0337 17.6424 39.0646 17.417C38.0955 17.1916 37.0832 17.2357 36.1374 17.5444C35.1915 17.8532 34.3482 18.4149 33.6987 19.1686C33.0492 19.9224 32.6184 20.8395 32.4528 21.8206H34.3089C34.4718 21.1889 34.8017 20.6127 35.2639 20.1524C35.7262 19.6921 36.3038 19.3648 36.9362 19.2046C37.5686 19.0444 38.2324 19.0574 38.858 19.2422C39.4836 19.4269 40.048 19.7766 40.4919 20.2546Z" fill="#ECF1E7"/>
<path d="M37.7734 23.7164C37.7734 23.6911 37.7746 23.666 37.7751 23.6407H12.5947L12.3099 25.5902C12.289 25.7334 12.2342 25.8695 12.1501 25.9872L8.07806 31.6881L11.1077 34.4001C11.2029 34.4854 11.2791 34.5898 11.3313 34.7065C11.3834 34.8233 11.4104 34.9497 11.4104 35.0775V38.4204H13.2533C13.6468 38.4215 14.0367 38.3445 14.4003 38.1939C14.7639 38.0433 15.094 37.8221 15.3715 37.543C15.542 37.3725 15.7733 37.2767 16.0144 37.2767C16.2555 37.2767 16.4867 37.3725 16.6572 37.543C16.8277 37.7135 16.9235 37.9447 16.9235 38.1858C16.9236 38.4269 16.8278 38.6582 16.6573 38.8287C16.2113 39.2771 15.6808 39.6325 15.0965 39.8745C14.5122 40.1165 13.8857 40.2403 13.2533 40.2385H11.4104V47.372L18.7834 48.1912C19.0057 48.2159 19.2111 48.3217 19.3603 48.4884C19.5095 48.6551 19.592 48.871 19.592 49.0947V52.731H37.7734V45.4584C37.7734 45.3828 37.7828 45.3075 37.8014 45.2342L38.9333 40.7847C40.0739 36.3065 40.4754 31.672 40.1221 27.0644C39.4345 26.8146 38.8403 26.3594 38.4202 25.7605C38.0001 25.1616 37.7742 24.448 37.7734 23.7164ZM22.2232 29.0325L22.1025 29.274C21.7196 30.0398 21.1311 30.6838 20.4028 31.1339C19.6745 31.584 18.8353 31.8224 17.9792 31.8224C17.1231 31.8224 16.2838 31.584 15.5556 31.1339C14.8273 30.6838 14.2388 30.0398 13.8559 29.274L13.7351 29.0327C13.6273 28.817 13.6095 28.5674 13.6857 28.3386C13.762 28.1099 13.926 27.9208 14.1416 27.813C14.3573 27.7051 14.6069 27.6874 14.8356 27.7636C15.0644 27.8399 15.2535 28.0039 15.3613 28.2195L15.482 28.461C15.7138 28.9247 16.0703 29.3148 16.5113 29.5874C16.9524 29.86 17.4606 30.0043 17.9791 30.0043C18.4976 30.0043 19.0059 29.86 19.4469 29.5874C19.888 29.3148 20.2444 28.9247 20.4763 28.461L20.5971 28.2194C20.706 28.0057 20.895 27.8437 21.1229 27.7688C21.3508 27.6938 21.599 27.7119 21.8136 27.8192C22.0281 27.9265 22.1915 28.1143 22.2683 28.3415C22.345 28.5688 22.3288 28.8172 22.2232 29.0325Z" fill="#ECF1E7"/>
<path d="M46.4747 19.5137C46.3121 19.4095 46.1389 19.3229 45.9579 19.2553C45.6655 19.1494 45.3568 19.0951 45.0458 19.0948C44.4226 19.0969 43.8188 19.3114 43.334 19.7029C42.8492 20.0945 42.5125 20.6397 42.3794 21.2484C42.3395 21.4512 42.2309 21.634 42.0719 21.7661C41.9129 21.8982 41.7133 21.9714 41.5067 21.9735H41.3842C40.4472 21.9735 39.6397 22.6921 39.5935 23.6281C39.5819 23.864 39.6183 24.0997 39.7005 24.3211C39.7826 24.5425 39.9089 24.7449 40.0716 24.916C40.2343 25.0871 40.4301 25.2234 40.647 25.3166C40.864 25.4099 41.0976 25.4581 41.3337 25.4583H48.7073C49.6444 25.4583 50.4519 24.7396 50.4981 23.8036C50.5096 23.5678 50.4732 23.3321 50.391 23.1108C50.3087 22.8895 50.1825 22.6872 50.0198 22.5162C49.8571 22.3451 49.6613 22.2089 49.4444 22.1157C49.2275 22.0225 48.9939 21.9744 48.7579 21.9741H48.6079C48.4006 21.9762 48.199 21.907 48.0366 21.7782C47.8743 21.6494 47.7611 21.4688 47.716 21.2665C47.6054 20.7366 47.3383 20.2522 46.9492 19.876C46.8085 19.7422 46.654 19.6238 46.4883 19.5228L46.4747 19.5137Z" fill="#ECF1E7"/>
<path d="M5.94852 9.63271C5.96265 9.51414 5.95329 9.39395 5.92096 9.279C5.88863 9.16405 5.83397 9.05659 5.7601 8.96277C5.68624 8.86895 5.59461 8.7906 5.49045 8.7322C5.3863 8.67379 5.27166 8.63648 5.15308 8.6224C3.76903 8.45839 2.36592 8.64312 1.07148 9.15977C0.960633 9.20411 0.859606 9.26984 0.774165 9.35322C0.688724 9.4366 0.620542 9.53599 0.573512 9.64572C0.526483 9.75545 0.501526 9.87336 0.500068 9.99274C0.49861 10.1121 0.520678 10.2306 0.565013 10.3414C0.609348 10.4523 0.675081 10.5533 0.75846 10.6388C0.841839 10.7242 0.94123 10.7924 1.05096 10.8394C1.16069 10.8864 1.2786 10.9114 1.39798 10.9129C1.51735 10.9143 1.63584 10.8922 1.74669 10.8479C2.75867 10.444 3.85557 10.2995 4.93763 10.4275C5.05623 10.4419 5.17651 10.4328 5.29157 10.4006C5.40664 10.3684 5.51421 10.3139 5.60813 10.24C5.70206 10.1662 5.78047 10.0745 5.83888 9.97032C5.8973 9.8661 5.93455 9.75137 5.94852 9.63271Z" fill="#ECF1E7"/>
<path d="M8.02487 11.6465C8.29082 11.8421 8.54154 12.0575 8.77485 12.291L8.94951 12.4657C9.11999 12.6362 9.35123 12.732 9.59233 12.732C9.83344 12.732 10.0647 12.6362 10.2352 12.4657C10.4056 12.2952 10.5014 12.064 10.5014 11.8229C10.5014 11.5818 10.4056 11.3505 10.2352 11.18L10.0605 11.0054C9.76182 10.7068 9.44095 10.4312 9.10064 10.1811C8.90625 10.0384 8.66313 9.97872 8.42476 10.0153C8.1864 10.0518 7.97231 10.1815 7.82959 10.3759C7.68687 10.5703 7.62722 10.8134 7.66376 11.0518C7.7003 11.2902 7.83003 11.5042 8.02442 11.647L8.02487 11.6465Z" fill="#ECF1E7"/>
<path d="M20.5006 7.23114C20.4999 7.24614 20.4983 7.26102 20.4983 7.27659V13.257L19.5893 13.3717L22.0928 15.7217L21.4488 19.0945L24.4574 17.4396L27.4661 19.0945L26.8219 15.7217L29.3256 13.3717L28.4488 13.2611C28.451 13.2361 28.4527 13.211 28.4527 13.1855V7.27659C28.4526 7.18163 28.4377 7.08726 28.4084 6.99694C28.8509 6.75443 29.2001 6.37155 29.401 5.90864C29.6019 5.44573 29.643 4.92914 29.5178 4.44029C29.3927 3.95144 29.1084 3.51815 28.7098 3.20871C28.3112 2.89927 27.821 2.73129 27.3163 2.73125H26.7049C26.5171 2.19957 26.1691 1.7392 25.7088 1.41357C25.2484 1.08795 24.6985 0.913086 24.1346 0.913086C23.5707 0.913086 23.0208 1.08795 22.5604 1.41357C22.1001 1.7392 21.7521 2.19957 21.5643 2.73125H20.9529C20.3895 2.73125 19.8461 2.94051 19.4283 3.31846C19.0105 3.6964 18.7479 4.21607 18.6916 4.77665C18.6352 5.33723 18.7891 5.89875 19.1234 6.35229C19.4577 6.80582 19.9485 7.11902 20.5006 7.23114ZM26.6345 7.27659V13.0322L25.9186 12.942L24.4573 9.83471L22.996 12.942L22.3165 13.0277V7.27659H26.6345Z" fill="#ECF1E7"/>
<path d="M13.2266 11.3669C13.5021 11.3664 13.7752 11.3157 14.0325 11.2171C15.2758 12.6441 15.9586 14.4741 15.9538 16.3667C15.9538 16.6078 16.0496 16.8391 16.22 17.0095C16.3905 17.18 16.6218 17.2758 16.8629 17.2758C17.104 17.2758 17.3352 17.18 17.5057 17.0095C17.6761 16.8391 17.7719 16.6078 17.7719 16.3667C17.7781 13.9982 16.9099 11.7108 15.3338 9.9428C15.5154 9.4915 15.5473 8.99383 15.4248 8.52304C15.3024 8.05224 15.0321 7.63318 14.6537 7.32749C14.2753 7.02181 13.8087 6.84565 13.3227 6.82494C12.8367 6.80422 12.3569 6.94005 11.9538 7.21243C11.5508 7.48481 11.2458 7.87936 11.0837 8.33803C10.9217 8.7967 10.9111 9.29527 11.0536 9.76039C11.1961 10.2255 11.4841 10.6326 11.8753 10.9218C12.2665 11.211 12.7401 11.367 13.2266 11.3669Z" fill="#ECF1E7"/>
<path d="M9.468 17.5507C10.2393 17.5364 11.0018 17.7163 11.6853 18.0741C12.3688 18.4318 12.9512 18.9558 13.379 19.5977C13.5134 19.7969 13.7211 19.9348 13.9569 19.9813C14.1926 20.0277 14.4371 19.979 14.637 19.8457C14.8369 19.7124 14.9759 19.5054 15.0236 19.27C15.0714 19.0345 15.024 18.7897 14.8917 18.5891C14.2838 17.6764 13.4519 16.9349 12.4755 16.4355C11.4992 15.9362 10.411 15.6956 9.31516 15.7369C9.06657 15.2772 8.66729 14.9172 8.18447 14.7172C7.70164 14.5173 7.1647 14.4897 6.66392 14.6391C6.16315 14.7885 5.72908 15.1057 5.43468 15.5375C5.14029 15.9693 5.00353 16.4892 5.0474 17.01C5.09127 17.5307 5.31309 18.0205 5.67556 18.3969C6.03804 18.7733 6.51907 19.0135 7.03778 19.077C7.55649 19.1405 8.08124 19.0235 8.52382 18.7456C8.9664 18.4677 9.29981 18.0459 9.468 17.5512V17.5507Z" fill="#ECF1E7"/>
<path d="M39.4876 11.358L39.3457 11.6421C39.2923 11.7488 39.2604 11.8651 39.2519 11.9842C39.2434 12.1032 39.2585 12.2228 39.2962 12.3361C39.334 12.4494 39.3936 12.5541 39.4718 12.6443C39.5501 12.7345 39.6453 12.8084 39.752 12.8618C39.8588 12.9152 39.975 12.9471 40.0941 12.9555C40.2132 12.964 40.3328 12.949 40.4461 12.9112C40.5593 12.8735 40.664 12.8138 40.7542 12.7356C40.8445 12.6574 40.9184 12.5622 40.9718 12.4554L41.1137 12.1714C41.8094 10.7785 42.936 9.64736 44.3261 8.94621C44.6559 9.33574 45.1092 9.60055 45.6105 9.69655C46.1117 9.79254 46.6308 9.71393 47.0811 9.47379C47.5315 9.23366 47.886 8.8465 48.0857 8.37678C48.2853 7.90706 48.318 7.38313 48.1784 6.89222C48.0387 6.40131 47.7351 5.97306 47.3181 5.67876C46.9011 5.38447 46.3959 5.2419 45.8866 5.27478C45.3772 5.30767 44.8946 5.51404 44.5189 5.85951C44.1432 6.20499 43.8972 6.66874 43.8218 7.17353C41.9414 8.0321 40.4117 9.50887 39.4876 11.358Z" fill="#ECF1E7"/>
<path d="M33.2268 10.0032C33.4679 10.0032 33.6992 9.9074 33.8696 9.73692C34.0401 9.56643 34.1359 9.33521 34.1359 9.09411V8.93809C34.1329 7.7379 34.5405 6.5728 35.2912 5.63635C35.8782 6.12142 36.6196 6.38 37.3809 6.36515C38.1422 6.3503 38.873 6.06301 39.4406 5.55542C40.0082 5.04783 40.375 4.35357 40.4744 3.59864C40.5739 2.8437 40.3994 2.07813 39.9827 1.44085C39.5659 0.803562 38.9345 0.336804 38.203 0.125277C37.4715 -0.0862503 36.6884 -0.0285277 35.9959 0.287969C35.3033 0.604465 34.7472 1.15876 34.4284 1.85027C34.1095 2.54177 34.0492 3.32465 34.2583 4.05684C33.0082 5.37409 32.3133 7.12209 32.3178 8.93809V9.09411C32.3178 9.33521 32.4135 9.56643 32.584 9.73692C32.7545 9.9074 32.9857 10.0032 33.2268 10.0032Z" fill="#ECF1E7"/>
</svg>
