<svg width="18" height="18" viewBox="0 0 18 18" fill="none" xmlns="http://www.w3.org/2000/svg">
<path d="M8.53167 1.25247C8.69364 0.819299 9.30636 0.819299 9.46833 1.25247L11.3528 6.29217C11.4231 6.48009 11.5989 6.60782 11.7993 6.61657L17.1747 6.85146C17.6367 6.87165 17.826 7.45437 17.4641 7.74227L13.2534 11.0919C13.0964 11.2168 13.0293 11.4234 13.0829 11.6168L14.5206 16.8016C14.6441 17.2473 14.1484 17.6074 13.7628 17.3522L9.27595 14.3826C9.10865 14.2719 8.89135 14.2719 8.72405 14.3826L4.23722 17.3522C3.85157 17.6074 3.35587 17.2473 3.47944 16.8016L4.91714 11.6168C4.97075 11.4234 4.9036 11.2168 4.74659 11.0919L0.535885 7.74227C0.173966 7.45437 0.363304 6.87165 0.825328 6.85146L6.2007 6.61657C6.40114 6.60782 6.57693 6.48009 6.6472 6.29217L8.53167 1.25247Z" fill="#FFD700"/>
</svg>
